<svg width="103" height="28" viewBox="0 0 103 28" fill="none" xmlns="http://www.w3.org/2000/svg">
<path fill-rule="evenodd" clip-rule="evenodd" d="M64.54 14C64.54 11.83 66.01 10.5 67.83 10.5C72.24 10.5 72.24 17.5 67.83 17.5C66.01 17.5 64.54 16.17 64.54 14ZM71.12 17.57L71.26 19.25H73.29V8.75H71.19L71.12 10.43C70.49 9.24 69.09 8.54 67.62 8.54C64.68 8.54 62.3 10.5 62.3 14C62.3 17.57 64.54 19.53 67.55 19.53C68.88 19.53 70.49 18.9 71.12 17.57ZM80.29 10.57C81.13 10.57 81.97 10.85 82.6 11.48L84 10.01C82.88 8.89 81.69 8.47 80.29 8.47C77.35 8.47 74.9 10.36 74.9 14C74.9 17.64 77.35 19.53 80.29 19.53C81.76 19.53 83.02 19.04 84.14 17.92L82.67 16.45C82.04 17.15 81.13 17.43 80.22 17.43C78.47 17.43 76.93 16.24 76.93 14.07C77 11.9 78.47 10.57 80.29 10.57ZM44.1 17.64C42.91 17.64 41.44 17.15 40.53 16.1L39.41 17.64C40.74 19.18 42.42 19.6 44.1 19.6C46.76 19.6 48.44 18.27 48.44 16.31C48.44 13.58 45.99 13.16 44.1 13.02C42.77 12.88 41.93 12.53 41.86 11.69C41.86 10.85 42.7 10.43 44.03 10.43C45.08 10.43 45.92 10.64 46.76 11.41L47.95 9.94C46.83 8.89 45.57 8.54 44.03 8.54C42.14 8.54 39.76 9.38 39.76 11.76C39.76 14.07 42 14.7 43.96 14.91C45.5 15.05 46.34 15.4 46.34 16.38C46.27 17.22 45.15 17.64 44.1 17.64ZM55.58 10.64C57.54 10.64 58.8 12.04 58.8 14C58.8 15.96 57.4 17.36 55.58 17.36C53.69 17.36 52.36 15.89 52.36 14C52.36 12.11 53.55 10.64 55.58 10.64ZM34.72 0C34.02 0 33.53 0.560001 33.53 1.19V7.7L28.84 13.02V4.34H26.67V19.25H28.84V14.42L33.53 19.6V26.81C33.53 27.51 34.09 28 34.72 28H52.15V17.71C52.92 19.04 54.53 19.46 55.79 19.46C58.94 19.46 60.97 17.15 60.97 14C60.97 10.85 58.87 8.54 55.79 8.54C54.39 8.54 52.99 9.17 52.15 10.43L52.01 8.75H49.98V25.76H36.05C35.84 25.76 35.63 25.62 35.63 25.34V18.69L31.01 13.65L35.63 8.54V2.59C35.63 2.38 35.84 2.17 36.05 2.17H99.61C99.82 2.17 100.03 2.38 100.03 2.59V25.34C100.03 25.55 99.82 25.76 99.61 25.76H54.25V28H100.94C101.64 28 102.13 27.44 102.13 26.81V1.19C102.13 0.560001 101.57 0 100.94 0H34.72ZM87.08 12.95C87.43 11.27 88.69 10.43 90.23 10.43C91.98 10.43 93.1 11.27 93.24 12.95H87.08ZM90.23 8.47C87.01 8.47 84.84 10.78 84.84 13.93C84.84 17.29 87.01 19.46 90.37 19.46C91.98 19.46 93.73 18.83 94.78 17.64L93.38 16.24C92.75 16.94 91.42 17.36 90.44 17.36C88.55 17.36 87.29 16.31 87.08 14.7H95.41C95.76 10.57 93.52 8.47 90.23 8.47ZM14 17.5C12.18 17.5 10.71 16.17 10.71 14C10.71 11.83 12.18 10.5 14 10.5C18.41 10.5 18.41 17.5 14 17.5ZM17.29 10.43C16.66 9.24 15.26 8.54 13.79 8.54C10.85 8.54 8.47 10.5 8.47 14C8.47 17.57 10.71 19.53 13.72 19.53C14.98 19.53 16.59 18.9 17.22 17.57L17.36 19.25H19.39V8.75H17.29V10.43ZM5.6 17.43C4.62 17.43 4.13 16.8 4.13 15.68V10.64H7.14V8.75H4.13V4.34H1.96V8.75H0V10.64H1.96V15.68C1.96 18.13 3.22 19.46 5.46 19.39C6.16 19.39 6.79 19.25 7.49 18.9L6.86 17.01C6.51 17.22 6.02 17.43 5.6 17.43ZM21.98 19.25H24.15V4.34H21.98V19.25Z" fill="#C5CCD2"/>
</svg>
