<svg width="85" height="32" viewBox="0 0 85 32" fill="none" xmlns="http://www.w3.org/2000/svg">
<g clip-path="url(#clip0_4707_12492)">
<path d="M47.5585 9.69133H44.6271V16.7874C44.6271 18.6137 43.9097 20.0647 41.806 20.0647C39.723 20.0863 39.1229 18.5921 39.1229 16.6935V9.69133H36.1845V17.4732C36.1845 19.7182 36.9432 22.9305 40.9783 22.9522C43.1924 22.9738 44.2891 21.8477 44.8064 20.8443V22.5552H47.5585V9.69133ZM48.7242 22.5552H51.6557V15.4591C51.6557 13.6544 52.373 12.2035 54.4561 12.1818C56.5184 12.1818 57.1185 13.6544 57.1185 15.5818V22.5552H60.0499V14.8022C60.0499 12.5283 59.2912 9.32318 55.2838 9.2943C53.0903 9.27264 51.9936 10.3915 51.4556 11.4022C51.4763 10.7958 51.4763 10.2544 51.4763 9.69133H48.7242V22.5552ZM61.1742 22.5552H64.1057V9.69133H61.1742V22.5552ZM61.1742 7.95883H64.1057V5.2157H61.1742V7.95883ZM67.1751 22.5552H70.1065V12.0591H72.2103L71.3412 9.69133H70.1065V5.2157H67.1751V9.69133H65.1403V12.0591H67.1751V22.5552ZM75.0452 27.0524H78.1766L84.6465 9.69133H81.515L78.5629 18.2456L75.5625 9.69133H72.431L77.0661 22.0643L75.0452 27.0524ZM20.1064 16.0077L25.4589 6.33461L28.0454 16.0077L25.4589 25.6809L20.1064 16.0077ZM17.4991 17.5742L22.8516 27.2473L13.5262 24.7496L6.78729 17.5742H17.4991ZM22.8516 4.76092L17.4991 14.434H6.78729L13.5262 7.25862L22.8516 4.76092ZM30.4941 12.716L27.2246 0.00376511L15.0367 3.41101L13.2296 6.73164L9.56699 6.70276L0.641602 16.0077L9.56699 25.3127L13.2296 25.2838L15.0367 28.6045L27.2246 32.0117L30.4941 19.2995L28.6386 16.0077L30.4941 12.716Z" fill="#B7BFC7"/>
</g>
<defs>
<clipPath id="clip0_4707_12492">
<rect width="84" height="32" fill="white" transform="translate(0.649414)"/>
</clipPath>
</defs>
</svg>
