<svg width="112" height="28" viewBox="0 0 112 28" fill="none" xmlns="http://www.w3.org/2000/svg">
<g clip-path="url(#clip0_4707_12485)">
<path d="M31.4728 23.4374L29.4153 26.9598C29.0519 27.6276 28.3852 27.9916 27.6597 27.9916H4.22768C3.50084 27.9916 2.83551 27.6276 2.47209 26.9598L0.413188 23.4374C0.0497706 22.8312 0.0497706 22.0416 0.413188 21.3738L12.2201 1.0318C12.5835 0.364 13.2488 0 13.9757 0H18.032C18.7588 0 19.4255 0.364 19.7875 1.0318L31.5343 21.3738C31.8977 21.9814 31.8977 22.7696 31.4728 23.4374ZM24.5106 18.459C23.6635 14.5726 21.6647 11.1118 18.8804 8.561C17.245 7.0434 14.7626 7.0434 13.1286 8.561C10.2828 11.172 8.28398 14.5726 7.49704 18.459C7.07352 20.5842 8.34548 22.6492 10.403 23.317C12.16 23.863 14.0358 24.1668 15.9745 24.1668C17.9118 24.1668 19.7875 23.863 21.5445 23.317C23.6635 22.7094 24.874 20.5842 24.5106 18.459Z" fill="#B7BFC7"/>
<path d="M56.5333 8.13666L49.4495 22.1017C49.3292 22.3453 49.0874 22.4671 48.8442 22.4671H46.4834C46.2416 22.4671 45.9984 22.3453 45.8782 22.1017L38.7943 8.13666C38.6727 7.89306 38.6727 7.65086 38.7943 7.40726L39.5813 6.07166C39.7015 5.82946 40.0048 5.64746 40.3081 5.64746H40.9734C41.1551 5.64746 41.3369 5.76786 41.397 5.88966L47.3305 17.7309C47.4521 17.9731 47.8155 17.9731 47.9357 17.7309L53.8692 5.88966C53.9307 5.70766 54.1124 5.64746 54.2941 5.64746H54.9594C55.2627 5.64746 55.5046 5.82946 55.6863 6.07166L56.4732 7.40726C56.5948 7.58926 56.5948 7.89306 56.5333 8.13666ZM66.7062 5.82946C66.5846 5.70766 66.4029 5.64746 66.2212 5.64746H65.1309C64.829 5.64746 64.5858 5.82946 64.4041 6.07166L63.6786 7.40726C63.6171 7.52906 63.557 7.65086 63.557 7.77266V21.7979C63.557 22.1633 63.8604 22.4671 64.2238 22.4671H66.1611C66.5245 22.4671 66.8264 22.1633 66.8264 21.7979V6.31526C66.8264 6.13326 66.8264 5.94986 66.7062 5.82946ZM91.529 8.13666L84.4452 22.1017C84.325 22.3453 84.0818 22.4671 83.8399 22.4671H81.4791C81.2359 22.4671 80.9941 22.3453 80.8739 22.1017L73.7901 8.13666C73.6684 7.89306 73.6684 7.65086 73.7901 7.40726L74.5155 6.07166C74.6371 5.82946 74.9404 5.64746 75.2423 5.64746H75.909C76.0908 5.64746 76.2711 5.76786 76.3326 5.88966L82.2661 17.7309C82.3863 17.9731 82.7497 17.9731 82.8713 17.7309L88.8048 5.88966C88.8649 5.70766 89.0466 5.64746 89.2283 5.64746H89.895C90.197 5.64746 90.4388 5.82946 90.6205 6.07166L91.4088 7.40726C91.6506 7.58926 91.6506 7.89306 91.529 8.13666ZM99.5214 6.07166C99.643 5.82946 99.9449 5.64746 100.248 5.64746H110.358C110.662 5.64746 110.903 5.82946 111.025 6.07166L111.752 7.28686C111.872 7.46886 111.934 7.65086 111.934 7.89306V8.19686C111.934 8.44046 111.752 8.68266 111.449 8.68266H102.186C102.004 8.68266 101.822 8.86466 101.822 9.04666V12.2051C101.822 12.3871 101.944 12.5691 102.186 12.5691H108.421C108.724 12.5691 108.966 12.8113 108.966 13.1151V14.9365C108.966 15.2403 108.724 15.4839 108.421 15.4839H102.186C102.004 15.4839 101.822 15.6057 101.822 15.8479V19.1267C101.822 19.3087 101.944 19.4907 102.186 19.4907H111.449C111.69 19.4907 111.934 19.6727 111.934 19.9765V20.2803C111.934 20.4623 111.872 20.7059 111.752 20.8879L111.025 22.1017C110.903 22.3453 110.601 22.5273 110.358 22.5273H100.248C99.9449 22.5273 99.7031 22.3453 99.5214 22.1017L98.7946 20.8879C98.673 20.7059 98.6129 20.5239 98.6129 20.2803V7.89306C98.6129 7.71106 98.673 7.46886 98.7946 7.28686L99.5214 6.07166Z" fill="#B7BFC7"/>
</g>
<defs>
<clipPath id="clip0_4707_12485">
<rect width="112" height="28" fill="white"/>
</clipPath>
</defs>
</svg>
